<svg xmlns="http://www.w3.org/2000/svg" xmlns:xlink="http://www.w3.org/1999/xlink" preserveAspectRatio="xMidYMid meet" version="1.0" viewBox="0.0 -2.5 447.5 502.6" zoomAndPan="magnify" style="fill: rgb(0, 0, 0);" original_string_length="4104"><g id="__id1360_s3b5fnn6do"><path d="M445.98,355.92c0,15.25-7.84,28.17-19.4,34.79l-80.46,46.46L26.83,131.97l48.59-28.06l46.22,14.03 c-2.04-0.62-19.21-62.44-19.21-62.44l81.87-47.29c15.56-8.87,35.53-9.21,54.52,0.75c48.88,25.64,73.82,77.2,80.24,118.43 c12.04-4.84,26.43-4.15,40.21,3.08c47.88,25.12,68.16,80.13,68.16,115.8c0,13.12-4.79,24.81-12.57,33.37 C436.47,302.53,445.98,333.75,445.98,355.92z" style="fill: rgb(0, 255, 134);"/></g><g id="__id1361_s3b5fnn6do"><path d="M333.94,326.37c7.78-8.56,12.57-20.25,12.57-33.37c0-35.67-20.28-90.68-68.16-115.8 c-13.78-7.23-28.17-7.92-40.21-3.08c-6.41-41.23-31.36-92.78-80.24-118.43c-39.25-20.59-82.72,2.81-82.72,54.74 c0,7.77,0.83,15.59,2.33,23.36c-0.66-0.36-1.31-0.74-1.98-1.1c-35.14-18.43-74.05,2.52-74.05,49c0,48.1,34.46,98.51,71.92,119.79 l233.87,134.97c28.68,16.29,57.77-4.43,57.77-33.81C365.05,380.49,355.54,349.26,333.94,326.37z" style="fill: rgb(240, 247, 254);"/></g><g id="__id1362_s3b5fnn6do"><path d="M254.49,331.57l-25.69,14.83v135.82l-26.35,13.99l-45.54-310.3l26.35-15.21L254.49,331.57z" style="fill: rgb(35, 255, 151);"/></g><g id="__id1363_s3b5fnn6do"><path d="M109.96,278.55l-23.9-13.8l70.86-78.84l71.22,160.88l-25.69-14.83v165.48l-92.5-53.4V278.55z" style="fill: rgb(52, 202, 131);"/></g><g id="__id1364_s3b5fnn6do"><path d="M416.87,279.61c7.78-9.07,12.05-20.85,12.05-33.34c0-19.75-5.94-42.54-16.29-62.54 c-12.53-24.2-30.74-43.08-52.66-54.57c-13.17-6.91-27.2-8.23-39.72-3.8C313.5,85.07,288.9,33.55,239.52,7.65 c-18.94-9.94-39.33-10.2-55.95-0.72l-80.41,46.44c-0.46,0.25-0.91,0.52-1.36,0.79l-0.11,0.06l0,0c-0.06,0.04-0.12,0.07-0.19,0.11 c-15.89,9.61-25.68,27.11-27.5,48.69l-47.92,27.67l0.01,0.02c-0.38,0.21-0.76,0.41-1.13,0.63C9.1,140.93,0,159.29,0,181.7 c0,22.78,7.86,47.9,22.14,70.74c13.52,21.63,31.47,39.51,50.53,50.33l35.81,20.67v121.44l95.48,55.12l26.35-13.99v-92.27 l76.25,44.01c6.94,3.94,14.22,5.92,21.31,5.92c6.56,0,12.95-1.69,18.77-5.08c0.08-0.05,0.16-0.1,0.24-0.15l0,0L427.32,392 c12.42-7.12,20.14-20.94,20.14-36.08C447.47,335.94,439.43,304.13,416.87,279.61z M358.58,131.79 c49.42,25.93,67.36,82.67,67.36,114.48c0,12.15-4.28,23.58-12.04,32.21l-74.2,42.85c5.38-8.21,8.28-18.02,8.28-28.32 c0-19.75-5.94-42.54-16.29-62.54c-12.53-24.2-30.74-43.07-52.66-54.57c-10.07-5.28-20.64-7.29-30.65-5.96l71.32-41.18 C331.81,123.91,345.62,124.99,358.58,131.79z M185.05,9.5c15.72-8.96,35.07-8.68,53.09,0.78c48.73,25.56,72.85,76.65,79.29,116.34 l-78.17,45.14c-6.83-40.24-31.42-91.55-80.66-117.38c-12.99-6.81-26.97-9.01-39.79-6.62L185.05,9.5z M73.79,106.58 c-0.05,1.28-0.09,2.56-0.09,3.86c0,6.63,0.6,13.54,1.8,20.57c-11.18-5.68-23.13-7.56-34.18-5.69L73.79,106.58z M200.97,494.86 l-89.52-51.69V277.69L88.4,264.38l68.1-75.77l68.45,154.6l-23.97-13.84V494.86z M228.84,344.67l-70.01-158.14l23.76-13.72 l70.01,158.14L228.84,344.67z M227.32,481.33l-23.37,12.41V334.53l22.19,12.81c0.37,0.21,0.78,0.29,1.18,0.25v41l-10.57-6.1 l-1.49,2.58l12.06,6.96V481.33z M308.02,435.17l-77.73-44.86v-43.05l26.1-15.07l-72.43-163.61l-27.99,16.16l-0.57,0.63l0,0 c0,0,0,0,0,0l-71.67,79.75l24.74,14.28v40.6l-34.33-19.81C39.16,280.33,2.98,230.57,2.98,181.7c0-21.34,8.58-38.77,23.53-47.82 c14.19-8.58,31.81-8.53,48.33,0.14c0.4,0.21,0.8,0.43,1.19,0.66c0.25,0.14,0.51,0.29,0.77,0.43l2.78,1.53l-0.6-3.11 c-1.53-7.9-2.3-15.67-2.3-23.08c0-23.91,9.61-43.43,26.38-53.57c15.67-9.48,35.92-9.42,54.16,0.15 c49.14,25.78,73.26,77.51,79.46,117.34l0.29,1.85l1.74-0.7c12.13-4.87,25.97-3.8,38.96,3.02c49.42,25.93,67.36,82.67,67.36,114.48 c0,12.22-4.33,23.72-12.18,32.37l-0.93,1.02l0.95,1c22.67,24.02,30.71,55.55,30.71,75.26c0,13.97-7.06,26.75-18.43,33.37 C333.96,442.53,320.43,442.22,308.02,435.17z M425.84,389.42l-68.03,39.28c5.55-7.21,8.73-16.36,8.73-26.05 c0-19.88-7.96-51.45-30.25-75.92l78.28-45.21c22.05,23.91,29.92,54.92,29.92,74.39C444.49,369.99,437.35,382.83,425.84,389.42z" style="fill: rgb(35, 255, 151);"/></g></svg>